<?xml version="1.0" encoding="utf-8"?>
<!-- Generator: Adobe Illustrator 27.5.0, SVG Export Plug-In . SVG Version: 6.00 Build 0)  -->
<svg version="1.1" xmlns="http://www.w3.org/2000/svg" xmlns:xlink="http://www.w3.org/1999/xlink" x="0px" y="0px"
	 viewBox="0 0 500 500" style="enable-background:new 0 0 500 500;" xml:space="preserve">
<g id="BACKGROUND">
</g>
<g id="OBJECTS">
	<g>
		<g>
			<defs>
				<rect id="SVGID_1_" x="237.326" y="359.939" width="47.279" height="47.468"/>
			</defs>
			<clipPath id="SVGID_00000097492518490001212350000002574256145583860905_">
				<use xlink:href="#SVGID_1_"  style="overflow:visible;"/>
			</clipPath>
			<path style="clip-path:url(#SVGID_00000097492518490001212350000002574256145583860905_);" d="M260.989,359.892
				c-13.068,0-23.663,10.595-23.663,23.662c0,13.068,10.595,23.663,23.663,23.663c13.068,0,23.663-10.595,23.663-23.663
				C284.652,370.487,274.057,359.892,260.989,359.892L260.989,359.892z M260.99,368.204l14.002,8.732h-28.006L260.99,368.204z
				 M275.167,390.879h-0.002c0,1.401-1.135,2.536-2.536,2.536h-23.28c-1.4,0-2.536-1.135-2.536-2.536v-13.388
				c0-0.148,0.016-0.292,0.04-0.434l13.379,8.343c0.016,0.01,0.034,0.017,0.05,0.026c0.018,0.01,0.036,0.019,0.054,0.028
				c0.095,0.049,0.192,0.088,0.291,0.113c0.011,0.003,0.021,0.005,0.031,0.007c0.109,0.025,0.22,0.042,0.331,0.042h0.002
				c0.11,0,0.221-0.016,0.331-0.042c0.01-0.002,0.02-0.004,0.031-0.007c0.099-0.025,0.196-0.065,0.291-0.113
				c0.018-0.009,0.036-0.019,0.054-0.028c0.016-0.009,0.034-0.016,0.05-0.026l13.379-8.343c0.025,0.142,0.04,0.285,0.04,0.434
				V390.879z M275.167,390.879"/>
		</g>
	</g>
	<g>
		<polygon style="fill:none;stroke:#000000;stroke-miterlimit:10;" points="347.395,367.563 362.024,376.429 332.695,376.486 		"/>
		<path style="fill:#FFFFFF;stroke:#000000;stroke-miterlimit:10;" d="M363.256,392.93h-0.002c0,1.568-1.27,2.837-2.837,2.837
			h-26.044c-1.567,0-2.837-1.27-2.837-2.837v-14.977c0-0.165,0.017-0.326,0.045-0.485l14.968,9.334
			c0.018,0.011,0.038,0.019,0.056,0.029c0.02,0.011,0.041,0.021,0.06,0.032c0.106,0.054,0.214,0.098,0.326,0.127
			c0.012,0.004,0.023,0.005,0.034,0.008c0.122,0.028,0.247,0.047,0.37,0.047h0.003c0.123,0,0.247-0.018,0.37-0.047
			c0.011-0.003,0.022-0.004,0.034-0.008c0.111-0.028,0.22-0.072,0.326-0.127c0.02-0.01,0.041-0.021,0.06-0.032
			c0.018-0.01,0.038-0.018,0.056-0.029l14.967-9.334c0.028,0.159,0.045,0.319,0.045,0.485V392.93z"/>
	</g>
	<path style="fill:#FFFFFF;stroke:#000000;stroke-miterlimit:10;" d="M401.174,408.408"/>
	<g>
		<path d="M269.615,323.1c0.264,1.045-2.629,0.713-3.335,1.691c-0.707,0.978-2.434,0.321-2.835,0.133
			c-0.4-0.188-1.934,0.439-1.8-0.626c0.133-1.066,1.066-1.128,2.067-1.566c1-0.438,2.443-1.895,1.734-2.085
			c-3.338-0.895-4.476-4.031-4.476-4.031c-0.2-0.038-0.15-2.217-1.017-2.279c-0.867-0.063-1.334,0.251-2.601,0
			c-1.268-0.25-1-1.065-1.201-2.819c-0.199-1.755,0.535-1.191,0.931-1.754c0.035-0.049,0.08-0.094,0.124-0.138
			c-4.641,1.589-7.989,5.992-7.989,11.164c0,0.008,0.001,0.017,0.001,0.025c0.862,0.056,2.433,0.238,2.507,0.83
			c0.102,0.817,0,1.839,0.715,2.145c0.715,0.307,0.919-1.225,1.533-0.817c0.612,0.409,2.247,0.802,2.247,1.525
			c0,0.722-0.306,1.846,0,2.051c0.307,0.204,1.532,1.634,1.532,1.839c0.001,0.204,0.432,1.243,0.304,1.64
			c-0.107,0.329-0.645,1.352-1.167,1.817c1.286,0.482,2.677,0.747,4.129,0.747c6.507,0,11.801-5.293,11.801-11.801
			c0-1.926-0.468-3.746-1.29-5.354c0.079,1.2,0.025,2.294,0.289,2.652C272.966,319.654,269.014,320.731,269.615,323.1L269.615,323.1
			z M269.615,323.1"/>
		<path d="M261.017,297.158c-13.051,0-23.632,10.581-23.632,23.632c0,13.051,10.58,23.633,23.632,23.633
			c13.051,0,23.632-10.581,23.632-23.633C284.649,307.739,274.068,297.158,261.017,297.158L261.017,297.158z M261.017,335.043
			c-7.858,0-14.252-6.393-14.252-14.252c0-7.859,6.393-14.253,14.252-14.253c7.859,0,14.253,6.394,14.253,14.253
			C275.27,328.65,268.876,335.043,261.017,335.043L261.017,335.043z M261.017,335.043"/>
	</g>
	<path style="fill:#FFFFFF;stroke:#000000;stroke-miterlimit:10;" d="M346.811,336.784"/>
	<g>
		<g>
			<defs>
				<rect id="SVGID_00000083797740089644977140000012049352673956854177_" x="237.198" y="115.48" width="47.241" height="47.43"/>
			</defs>
			<clipPath id="SVGID_00000148647451854214647070000014898426910478762937_">
				<use xlink:href="#SVGID_00000083797740089644977140000012049352673956854177_"  style="overflow:visible;"/>
			</clipPath>
			<path style="clip-path:url(#SVGID_00000148647451854214647070000014898426910478762937_);" d="M260.84,115.434
				c-13.056,0-23.642,10.586-23.642,23.643c0,13.057,10.586,23.644,23.642,23.644c13.058,0,23.645-10.587,23.645-23.644
				C284.485,126.02,273.898,115.434,260.84,115.434L260.84,115.434z M270.448,149.659v1.636c0,0.903-0.732,1.635-1.635,1.635
				h-16.352c-1.806,0-3.271-1.464-3.271-3.271v-20.576c0-1.806,1.465-3.271,3.271-3.271h16.352c0.903,0,1.635,0.733,1.635,1.635
				V149.659z M273.719,129.083v22.212c0,0.903-0.732,1.635-1.635,1.635h-0.443c0.279-0.482,0.443-1.04,0.443-1.635v-23.847
				c0-0.596-0.163-1.153-0.443-1.635h0.443c0.903,0,1.635,0.732,1.635,1.635V129.083z M273.719,129.083"/>
		</g>
		<path d="M264.875,141.524c0,0-0.617-0.74-1.298-0.229c-0.509,0.38-1.422,1.225-1.642,1.431c0,0-1.528-0.814-2.431-1.558
			c-1.339-1.101-2.234-2.46-2.703-3.233l-0.351-0.661c0.122-0.132,1.057-1.133,1.462-1.677c0.509-0.682-0.229-1.298-0.229-1.298
			s-2.078-2.078-2.551-2.491c-0.473-0.413-1.018-0.184-1.018-0.184c-0.995,0.643-2.027,1.203-2.088,3.891
			c-0.002,2.518,1.909,5.113,3.975,7.123c2.07,2.27,4.912,4.545,7.659,4.542c2.688-0.06,3.246-1.092,3.89-2.087
			c0,0,0.23-0.545-0.183-1.018C266.954,143.601,264.875,141.524,264.875,141.524L264.875,141.524z M264.875,141.524"/>
	</g>
	<g>
		<path style="fill:#FFFFFF;stroke:#000000;stroke-miterlimit:10;" d="M357.69,149.694v1.959c0,1.081-0.877,1.959-1.959,1.959
			h-19.584c-2.163,0-3.918-1.754-3.918-3.917V125.05c0-2.163,1.754-3.918,3.918-3.918h19.584c1.081,0,1.959,0.877,1.959,1.959
			V149.694z"/>
		<path style="fill:#FFFFFF;stroke:#000000;stroke-miterlimit:10;" d="M361.606,125.05v26.602c0,1.081-0.876,1.959-1.958,1.959
			h-0.53c0.335-0.577,0.53-1.245,0.53-1.959v-28.561c0-0.713-0.196-1.381-0.53-1.958h0.53c1.081,0,1.958,0.876,1.958,1.958V125.05z"
			/>
		<path style="fill:#FFFFFF;stroke:#000000;stroke-miterlimit:10;" d="M361.606,125.05"/>
		<path style="fill:#FFFFFF;stroke:#000000;stroke-miterlimit:10;" d="M351.015,139.95c0,0-0.738-0.886-1.555-0.275
			c-0.609,0.455-1.704,1.467-1.966,1.714c0,0-1.83-0.975-2.912-1.866c-1.604-1.319-2.676-2.947-3.237-3.872l-0.42-0.792
			c0.147-0.158,1.266-1.357,1.751-2.009c0.61-0.817-0.274-1.554-0.274-1.554s-2.489-2.489-3.056-2.983
			c-0.567-0.495-1.219-0.22-1.219-0.22c-1.192,0.77-2.427,1.441-2.501,4.661c-0.003,3.015,2.286,6.123,4.76,8.531
			c2.479,2.718,5.883,5.443,9.173,5.439c3.22-0.072,3.888-1.308,4.659-2.5c0,0,0.276-0.652-0.219-1.219
			C353.504,142.437,351.015,139.95,351.015,139.95L351.015,139.95z M351.015,139.95"/>
	</g>
	<g>
		<path d="M259.67,78.565c2.998,0,3.713-2.445,3.713-4.496c0-2.051-1.663-3.714-3.713-3.714c-2.051,0-3.715,1.664-3.715,3.714
			C255.955,76.12,256.941,78.565,259.67,78.565L259.67,78.565z M259.67,78.565"/>
		<g>
			<defs>
				<rect id="SVGID_00000025429289265270781040000011512698925586345644_" x="237.198" y="54.495" width="46.93" height="47.118"/>
			</defs>
			<clipPath id="SVGID_00000053542623059391913700000011600163186580901006_">
				<use xlink:href="#SVGID_00000025429289265270781040000011512698925586345644_"  style="overflow:visible;"/>
			</clipPath>
			<path style="clip-path:url(#SVGID_00000053542623059391913700000011600163186580901006_);" d="M260.188,79.081h-1.035
				c-2.035,0-5.088,1.865-5.088,4.167c0,2.301-0.69,4.168,1.345,4.168h8.523c2.035,0,1.345-1.866,1.345-4.168
				C265.277,80.946,262.224,79.081,260.188,79.081L260.188,79.081z M260.188,79.081"/>
			<path style="clip-path:url(#SVGID_00000053542623059391913700000011600163186580901006_);" d="M260.684,54.449
				c-12.97,0-23.487,10.516-23.487,23.488c0,12.972,10.516,23.489,23.487,23.489c12.972,0,23.489-10.517,23.489-23.489
				C284.174,64.965,273.657,54.449,260.684,54.449L260.684,54.449z M270.23,88.45v1.625c0,0.897-0.727,1.625-1.625,1.625H252.36
				c-1.795,0-3.25-1.455-3.25-3.249V68.008c0-1.794,1.455-3.249,3.25-3.249h16.245c0.897,0,1.625,0.727,1.625,1.624V88.45z
				 M273.478,68.008v22.066c0,0.897-0.727,1.625-1.624,1.625h-0.44c0.277-0.479,0.44-1.033,0.44-1.625V66.384
				c0-0.592-0.162-1.146-0.44-1.625h0.44c0.897,0,1.624,0.727,1.624,1.625V68.008z M273.478,68.008"/>
		</g>
	</g>
	<g>
		<path d="M260.911,236.915c-12.992,0-23.526,10.534-23.526,23.526c0,12.992,10.533,23.527,23.526,23.527
			c12.992,0,23.527-10.534,23.527-23.527C284.438,247.449,273.904,236.915,260.911,236.915L260.911,236.915z M249.632,271.67
			l5.571-8.975c0.468,0.617,0.992,1.228,1.584,1.82c0.586,0.587,1.196,1.116,1.817,1.587L249.632,271.67z M271.677,257.003
			c-0.592,0.593-1.597,0.651-2.713,0.271l-2.984,2.983c1.5,2.437,1.857,4.809,0.686,5.982c-0.474,0.474-1.144,0.698-1.937,0.698
			c-1.458,0-3.328-0.763-5.138-2.131c-0.041-0.03-0.08-0.062-0.12-0.094c-0.129-0.099-0.257-0.201-0.386-0.307
			c-0.051-0.042-0.101-0.084-0.152-0.127c-0.122-0.103-0.243-0.21-0.364-0.319c-0.047-0.042-0.095-0.084-0.143-0.128
			c-0.165-0.151-0.328-0.306-0.489-0.467c-0.184-0.184-0.36-0.37-0.531-0.558c-0.106-0.116-0.205-0.233-0.306-0.351
			c-0.055-0.064-0.112-0.128-0.166-0.193c-0.13-0.157-0.254-0.315-0.375-0.473c-0.015-0.02-0.031-0.039-0.045-0.059
			c-2.122-2.8-2.801-5.744-1.451-7.094c0.474-0.474,1.145-0.699,1.937-0.699c1.166,0,2.595,0.488,4.047,1.382l2.982-2.981
			c-0.38-1.117-0.322-2.121,0.272-2.714c1.111-1.111,3.664-0.361,5.701,1.676C272.039,253.338,272.79,255.89,271.677,257.003
			L271.677,257.003z M271.677,257.003"/>
	</g>
	<g>
		<path style="fill:#FFFFFF;stroke:#000000;stroke-miterlimit:10;" d="M332.922,276.128l7.201-11.603
			c0.605,0.798,1.282,1.587,2.048,2.353c0.757,0.759,1.546,1.443,2.349,2.051L332.922,276.128z"/>
		<path style="fill:#FFFFFF;stroke:#000000;stroke-miterlimit:10;" d="M361.421,257.167c-0.765,0.766-2.064,0.841-3.508,0.35
			l-3.858,3.856c1.939,3.15,2.401,6.217,0.887,7.733c-0.613,0.613-1.479,0.902-2.504,0.902c-1.885,0-4.303-0.986-6.642-2.754
			c-0.052-0.039-0.104-0.08-0.156-0.121c-0.166-0.128-0.333-0.26-0.499-0.397c-0.065-0.055-0.131-0.109-0.196-0.165
			c-0.158-0.134-0.315-0.271-0.471-0.412c-0.061-0.055-0.123-0.109-0.184-0.165c-0.213-0.195-0.424-0.396-0.632-0.604
			c-0.237-0.237-0.465-0.478-0.686-0.722c-0.137-0.15-0.265-0.302-0.395-0.454c-0.071-0.083-0.145-0.165-0.215-0.25
			c-0.168-0.203-0.329-0.407-0.485-0.612c-0.02-0.026-0.04-0.05-0.059-0.076c-2.743-3.62-3.62-7.426-1.876-9.171
			c0.613-0.613,1.48-0.903,2.504-0.903c1.508,0,3.354,0.632,5.232,1.787l3.855-3.854c-0.491-1.443-0.416-2.742,0.352-3.509
			c1.437-1.437,4.736-0.467,7.37,2.167C361.889,252.429,362.859,255.729,361.421,257.167L361.421,257.167z"/>
	</g>
	<path style="fill:#FFFFFF;stroke:#000000;stroke-miterlimit:10;" d="M363.256,252.936"/>
	<g>
		<g>
			<defs>
				<rect id="SVGID_00000150070287670617695590000000702542353676501411_" x="237.198" y="175.936" width="47.241" height="47.43"/>
			</defs>
			<clipPath id="SVGID_00000163041375665788852850000016990776960552033214_">
				<use xlink:href="#SVGID_00000150070287670617695590000000702542353676501411_"  style="overflow:visible;"/>
			</clipPath>
			<path style="clip-path:url(#SVGID_00000163041375665788852850000016990776960552033214_);" d="M264.717,193.318
				c0,2.103-1.704,3.807-3.807,3.807c-2.102,0-3.806-1.704-3.806-3.807c0-2.102,1.704-3.807,3.806-3.807
				C263.013,189.511,264.717,191.216,264.717,193.318L264.717,193.318z M264.717,193.318"/>
			<path style="clip-path:url(#SVGID_00000163041375665788852850000016990776960552033214_);" d="M260.841,175.889
				c-13.057,0-23.643,10.586-23.643,23.643c0,13.057,10.586,23.644,23.643,23.644c13.057,0,23.644-10.587,23.644-23.644
				C284.485,186.475,273.898,175.889,260.841,175.889L260.841,175.889z M260.792,186.714c0.017,0,0.033-0.001,0.05-0.002
				c0.016,0.001,0.032,0.002,0.049,0.002c3.984,0.063,7.225,3.356,7.225,7.34c0,4.872-5.206,9.805-7.274,11.573
				c-0.138-0.119-0.292-0.252-0.456-0.398c-0.003-0.002-0.006-0.005-0.008-0.007c-2.29-2.034-6.811-6.627-6.811-11.168
				C253.567,190.07,256.809,186.777,260.792,186.714L260.792,186.714z M260.944,212.498c-4.36,0-8.775-1.251-8.775-3.641
				c0-1.677,2.174-2.792,4.976-3.309c0.543,0.545,1.055,1.025,1.505,1.426c-3.053,0.341-4.846,1.307-4.846,1.883
				c0,0.707,2.71,2.006,7.14,2.006c4.429,0,7.14-1.299,7.14-2.006c0-0.587-1.869-1.578-5.033-1.9
				c0.454-0.405,0.971-0.89,1.518-1.441c2.886,0.503,5.15,1.629,5.15,3.341C269.719,211.247,265.305,212.498,260.944,212.498
				L260.944,212.498z M260.944,212.498"/>
		</g>
	</g>
	<g>
		<path style="fill:none;stroke:#000000;stroke-miterlimit:10;" d="M352.801,187.975c0,3.541-2.869,6.41-6.41,6.41
			c-3.539,0-6.409-2.87-6.409-6.41c0-3.539,2.869-6.41,6.409-6.41C349.932,181.566,352.801,184.436,352.801,187.975L352.801,187.975
			z M352.801,187.975"/>
		<path style="fill:none;stroke:#000000;stroke-miterlimit:10;" d="M346.191,176.856c0.029,0,0.056-0.001,0.084-0.003
			c0.027,0.001,0.054,0.003,0.083,0.003c6.708,0.106,12.165,5.65,12.165,12.36c0,8.203-8.766,16.51-12.248,19.487
			c-0.233-0.2-0.491-0.424-0.767-0.67c-0.005-0.004-0.009-0.008-0.013-0.012c-3.855-3.425-11.468-11.159-11.468-18.805
			C334.026,182.507,339.485,176.962,346.191,176.856L346.191,176.856z"/>
		<path style="fill:none;stroke:#000000;stroke-miterlimit:10;" d="M346.448,220.271c-7.342,0-14.776-2.106-14.776-6.131
			c0-2.824,3.66-4.702,8.379-5.571c0.914,0.917,1.777,1.726,2.535,2.401c-5.14,0.574-8.16,2.201-8.16,3.17
			c0,1.19,4.563,3.377,12.022,3.377c7.458,0,12.023-2.187,12.023-3.377c0-0.989-3.148-2.657-8.474-3.2
			c0.765-0.682,1.636-1.498,2.556-2.426c4.86,0.846,8.671,2.743,8.671,5.626C361.223,218.165,353.791,220.271,346.448,220.271
			L346.448,220.271z"/>
	</g>
	<path style="fill:none;stroke:#000000;stroke-miterlimit:10;" d="M346.448,202.617"/>
	<text transform="matrix(1 0 0 1 101.429 83.5579)" style="font-family:'Montserrat-ExtraLight'; font-size:20px;">NAME</text>
	<text transform="matrix(1 0 0 1 101.4292 144.9694)" style="font-family:'Montserrat-ExtraLight'; font-size:20px;">PHONE</text>
	<text transform="matrix(1 0 0 1 101.429 206.0034)" style="font-family:'Montserrat-ExtraLight'; font-size:20px;">LOCATION</text>
	<text transform="matrix(1 0 0 1 105.2166 267.4049)" style="font-family:'Montserrat-ExtraLight'; font-size:20px;">ADDRESS</text>
	<text transform="matrix(1 0 0 1 105.2168 327.6291)" style="font-family:'Montserrat-ExtraLight'; font-size:20px;">WEBSITE</text>
	<text transform="matrix(1 0 0 1 101.4293 389.2741)" style="font-family:'Montserrat-ExtraLight'; font-size:20px;">MAIL</text>
	<g>
		<path style="fill:#FFFFFF;stroke:#000000;stroke-miterlimit:10;" d="M357.288,89.387v1.834c0,1.012-0.849,1.833-1.898,1.833
			h-18.974c-2.096,0-3.796-1.642-3.796-3.667V66.318c0-2.024,1.7-3.666,3.796-3.666h18.974c1.047,0,1.898,0.821,1.898,1.833V89.387z
			"/>
		<path style="fill:#FFFFFF;stroke:#000000;stroke-miterlimit:10;" d="M361.083,66.318v24.902c0,1.012-0.849,1.833-1.897,1.833
			h-0.514c0.324-0.541,0.514-1.166,0.514-1.833V64.486c0-0.669-0.189-1.293-0.514-1.833h0.514c1.048,0,1.897,0.821,1.897,1.833
			V66.318z"/>
		<path style="fill:#FFFFFF;stroke:#000000;stroke-miterlimit:10;" d="M361.083,66.318"/>
		<path style="fill:#FFFFFF;stroke:#000000;stroke-miterlimit:10;" d="M344.954,78.232c3.502,0,4.337-2.759,4.337-5.074
			c0-2.315-1.942-4.192-4.337-4.192c-2.395,0-4.339,1.878-4.339,4.192C340.615,75.473,341.766,78.232,344.954,78.232L344.954,78.232
			z M344.954,78.232"/>
		<path style="fill:#FFFFFF;stroke:#000000;stroke-miterlimit:10;" d="M345.558,78.815h-1.209c-2.377,0-5.943,2.104-5.943,4.703
			c0,2.597-0.806,4.704,1.571,4.704h9.955c2.377,0,1.571-2.106,1.571-4.704C351.503,80.919,347.937,78.815,345.558,78.815
			L345.558,78.815z M345.558,78.815"/>
	</g>
	<g>
		<path style="fill:#FFFFFF;stroke:#000000;stroke-miterlimit:10;" d="M346.811,333.372c-8.422,0-15.275-6.853-15.275-15.276
			c0-8.423,6.853-15.276,15.275-15.276c8.423,0,15.276,6.853,15.276,15.276C362.086,326.519,355.234,333.372,346.811,333.372
			L346.811,333.372z"/>
		<path d="M356.026,320.572c0.283,1.12-2.817,0.764-3.574,1.812c-0.758,1.048-2.609,0.344-3.038,0.143
			c-0.429-0.201-2.073,0.47-1.929-0.671c0.143-1.142,1.143-1.209,2.215-1.679c1.072-0.469,2.619-2.031,1.858-2.234
			c-3.578-0.96-4.798-4.32-4.798-4.32c-0.214-0.04-0.161-2.376-1.09-2.443c-0.929-0.068-1.43,0.269-2.788,0
			c-1.359-0.268-1.072-1.141-1.287-3.021c-0.214-1.881,0.573-1.276,0.998-1.88c0.037-0.053,0.086-0.101,0.133-0.148
			c-4.974,1.703-8.563,6.422-8.563,11.966c0,0.009,0.001,0.018,0.001,0.026c0.924,0.06,2.608,0.255,2.687,0.89
			c0.11,0.876,0,1.971,0.767,2.299c0.766,0.329,0.985-1.313,1.643-0.876c0.656,0.438,2.408,0.86,2.408,1.634
			c0,0.774-0.328,1.979,0,2.198c0.329,0.218,1.642,1.751,1.642,1.971c0.001,0.218,0.463,1.332,0.326,1.758
			c-0.115,0.353-0.692,1.45-1.251,1.948c1.379,0.516,2.869,0.801,4.425,0.801c6.975,0,12.648-5.673,12.648-12.648
			c0-2.065-0.501-4.015-1.383-5.739c0.085,1.286,0.027,2.459,0.309,2.842C359.618,316.878,355.382,318.033,356.026,320.572
			L356.026,320.572z M356.026,320.572"/>
	</g>
</g>
<g id="DESIGNED_BY_FREEPIK">
	<g>
		<g id="XMLID_319_">
			<g id="XMLID_338_">
				<path id="XMLID_346_" style="fill:#1D262D;" d="M260.104,465.465c-0.432,0.443-0.803,0.931-1.108,1.453l-0.465-0.241
					c-0.067-0.298-0.349-0.503-0.659-0.466c-0.331,0.039-0.568,0.339-0.529,0.67c0.039,0.331,0.339,0.568,0.67,0.529
					c0.066-0.008,0.127-0.026,0.184-0.052l0.451,0.234c-0.251,0.554-0.433,1.139-0.539,1.744l0.747,0.132
					c0.23-1.306,0.85-2.507,1.792-3.473L260.104,465.465z"/>
				<path id="XMLID_345_" style="fill:#1D262D;" d="M265.592,463.163c-0.171,0-0.341,0.006-0.51,0.017l-0.074-0.626
					c0.188-0.149,0.296-0.389,0.266-0.645c-0.046-0.393-0.402-0.674-0.795-0.628c-0.393,0.046-0.674,0.402-0.628,0.795
					c0.03,0.254,0.189,0.461,0.404,0.564l0.074,0.624c-0.714,0.116-1.403,0.332-2.06,0.646l0.327,0.684
					c0.934-0.447,1.942-0.673,2.995-0.673c0.496,0,0.993,0.053,1.475,0.158l0.161-0.741
					C266.692,463.222,266.142,463.163,265.592,463.163z"/>
				<path id="XMLID_344_" style="fill:#1D262D;" d="M272.194,465.711c0.331-0.04,0.566-0.341,0.526-0.672
					c-0.04-0.331-0.341-0.566-0.672-0.526c-0.309,0.038-0.535,0.304-0.53,0.609l-0.416,0.363c-0.418-0.43-0.889-0.813-1.408-1.139
					l-0.404,0.641c1.134,0.715,2.021,1.726,2.563,2.925l0.69-0.313c-0.251-0.554-0.567-1.072-0.942-1.545l0.402-0.351
					C272.065,465.716,272.129,465.719,272.194,465.711z"/>
				<path id="XMLID_343_" style="fill:#1D262D;" d="M265.044,473.372c-0.386,0.023-0.775,0.035-1.157,0.035
					c-0.88,0-1.733-0.061-2.478-0.179c-0.39-0.062-0.846-0.155-1.27-0.292c1.046,1.861,3.069,3.125,5.388,3.125
					c2.855,0,5.262-1.916,5.95-4.504c-0.682,0.449-1.505,0.825-2.459,1.123C267.839,473.047,266.463,473.286,265.044,473.372z"/>
				<path id="XMLID_339_" style="fill:#1D262D;" d="M265.592,464.68c-3.352,0-6.08,2.666-6.08,5.943
					c0,0.426,0.046,0.849,0.137,1.261c0.673,0.483,2.706,0.89,5.348,0.731c2.879-0.173,5.297-0.957,6.672-2.159
					c-0.006-0.195-0.021-0.39-0.045-0.582C271.244,466.913,268.65,464.68,265.592,464.68z M263.432,471.194
					c-1.02,0-1.85-0.83-1.85-1.85c0-1.02,0.83-1.85,1.85-1.85c1.02,0,1.85,0.83,1.85,1.85
					C265.282,470.365,264.452,471.194,263.432,471.194z M268.17,470.286c-0.75,0-1.36-0.61-1.36-1.36s0.61-1.361,1.36-1.361
					c0.75,0,1.361,0.61,1.361,1.361S268.92,470.286,268.17,470.286z"/>
			</g>
			<path id="XMLID_336_" style="fill:#1D262D;" d="M281.595,466.547c-0.295-0.116-0.805-0.309-1.382-0.237
				c-0.551,0.069-0.844,0.341-0.844,1.007v0.866h2.228v1.717h-2.228v5.455h-1.932v-5.455h-1.34v-1.717h1.34v-0.888
				c0-1.68,0.896-2.783,2.568-2.783c0.643,0,1.157,0.122,1.59,0.308L281.595,466.547z"/>
			<path id="XMLID_334_" style="fill:#1D262D;" d="M286.298,469.879c-0.177-0.03-0.358-0.046-0.526-0.046
				c-0.896,0-1.51,0.548-1.51,1.614v3.908h-1.932v-7.172h1.873v0.785c0.451-0.673,1.14-0.977,2.021-0.977
				c0.414,0,0.848,0.128,1.094,0.337L286.298,469.879z"/>
			<path id="XMLID_331_" style="fill:#1D262D;" d="M293.965,471.757c0,0.222-0.015,0.489-0.037,0.651h-5.085
				c0.207,1.036,0.933,1.488,1.843,1.488c0.622,0,1.295-0.252,1.813-0.688l1.133,1.243c-0.814,0.748-1.85,1.088-3.057,1.088
				c-2.198,0-3.723-1.495-3.723-3.753c0-2.258,1.48-3.797,3.627-3.797C292.544,467.99,293.958,469.522,293.965,471.757z
				 M288.851,471.091h3.175c-0.177-0.918-0.733-1.436-1.562-1.436C289.554,469.655,289.021,470.203,288.851,471.091z"/>
			<path id="XMLID_328_" style="fill:#1D262D;" d="M301.618,471.757c0,0.222-0.015,0.489-0.037,0.651h-5.085
				c0.207,1.036,0.932,1.488,1.843,1.488c0.622,0,1.295-0.252,1.814-0.688l1.132,1.243c-0.814,0.748-1.85,1.088-3.057,1.088
				c-2.198,0-3.723-1.495-3.723-3.753c0-2.258,1.48-3.797,3.627-3.797C300.197,467.99,301.611,469.522,301.618,471.757z
				 M296.504,471.091h3.175c-0.178-0.918-0.733-1.436-1.562-1.436C297.207,469.655,296.674,470.203,296.504,471.091z"/>
			<path id="XMLID_325_" style="fill:#1D262D;" d="M309.964,471.764c0,2.154-1.495,3.775-3.471,3.775
				c-0.962,0-1.643-0.378-2.109-0.933v3.708h-1.924v-10.133h1.887v0.792c0.466-0.585,1.155-0.984,2.139-0.984
				C308.469,467.99,309.964,469.61,309.964,471.764z M304.287,471.764c0,1.132,0.747,1.976,1.843,1.976
				c1.14,0,1.85-0.881,1.85-1.976c0-1.095-0.71-1.976-1.85-1.976C305.035,469.788,304.287,470.632,304.287,471.764z"/>
			<path id="XMLID_322_" style="fill:#1D262D;" d="M313.068,465.836c0,0.696-0.54,1.229-1.236,1.229
				c-0.696,0-1.229-0.533-1.229-1.229c0-0.696,0.533-1.243,1.229-1.243C312.527,464.592,313.068,465.14,313.068,465.836z
				 M312.809,475.354h-1.932v-7.172h1.932V475.354z"/>
			<path id="XMLID_320_" style="fill:#1D262D;" d="M316.032,470.736l2.701-2.554h2.368l-3.479,3.375l3.501,3.797h-2.376
				l-2.716-2.901v2.901H314.1v-10.658h1.932V470.736z"/>
		</g>
		<g>
			<path style="fill:#1D262D;" d="M184.412,475.289v-1.055c-0.527,0.718-1.391,1.23-2.388,1.23c-1.846,0-3.149-1.406-3.149-3.706
				c0-2.256,1.289-3.721,3.149-3.721c0.952,0,1.816,0.469,2.388,1.245v-3.765h1.099v9.77H184.412z M184.412,473.37v-3.208
				c-0.395-0.615-1.245-1.143-2.124-1.143c-1.421,0-2.27,1.172-2.27,2.739c0,1.567,0.85,2.724,2.27,2.724
				C183.168,474.483,184.017,473.986,184.412,473.37z"/>
			<path style="fill:#1D262D;" d="M186.932,471.744c0-2.051,1.465-3.706,3.486-3.706c2.139,0,3.398,1.67,3.398,3.794v0.279h-5.727
				c0.088,1.333,1.025,2.446,2.549,2.446c0.805,0,1.626-0.322,2.182-0.894l0.527,0.718c-0.703,0.703-1.655,1.084-2.812,1.084
				C188.44,475.465,186.932,473.956,186.932,471.744z M190.403,468.947c-1.509,0-2.256,1.274-2.314,2.358h4.643
				C192.718,470.25,192.015,468.947,190.403,468.947z"/>
			<path style="fill:#1D262D;" d="M194.607,474.351l0.571-0.791c0.469,0.542,1.362,1.011,2.329,1.011c1.084,0,1.67-0.513,1.67-1.216
				c0-1.714-4.38-0.659-4.38-3.281c0-1.098,0.952-2.036,2.636-2.036c1.201,0,2.051,0.454,2.622,1.026l-0.513,0.762
				c-0.424-0.513-1.201-0.894-2.109-0.894c-0.967,0-1.567,0.483-1.567,1.113c0,1.552,4.38,0.527,4.38,3.281
				c0,1.187-0.952,2.138-2.783,2.138C196.306,475.465,195.325,475.113,194.607,474.351z"/>
			<path style="fill:#1D262D;" d="M201.477,466.471c0-0.41,0.337-0.747,0.732-0.747c0.41,0,0.747,0.337,0.747,0.747
				c0,0.41-0.337,0.732-0.747,0.732C201.814,467.203,201.477,466.881,201.477,466.471z M201.667,475.289v-7.075h1.099v7.075H201.667
				z"/>
			<path style="fill:#1D262D;" d="M204.582,477.105l0.556-0.82c0.586,0.703,1.289,0.967,2.3,0.967c1.172,0,2.27-0.571,2.27-2.124
				v-1.011c-0.513,0.718-1.377,1.26-2.373,1.26c-1.845,0-3.149-1.377-3.149-3.662c0-2.27,1.289-3.677,3.149-3.677
				c0.952,0,1.802,0.469,2.373,1.245v-1.069h1.098v6.87c0,2.344-1.641,3.076-3.369,3.076
				C206.237,478.16,205.417,477.926,204.582,477.105z M209.709,473.253v-3.091c-0.381-0.615-1.23-1.143-2.109-1.143
				c-1.421,0-2.27,1.128-2.27,2.695c0,1.553,0.849,2.695,2.27,2.695C208.478,474.41,209.328,473.868,209.709,473.253z"/>
			<path style="fill:#1D262D;" d="M217.413,475.289v-4.629c0-1.245-0.63-1.641-1.582-1.641c-0.865,0-1.685,0.527-2.095,1.099v5.17
				h-1.099v-7.075h1.099v1.025c0.498-0.586,1.465-1.201,2.519-1.201c1.48,0,2.256,0.747,2.256,2.285v4.966H217.413z"/>
			<path style="fill:#1D262D;" d="M219.932,471.744c0-2.051,1.465-3.706,3.486-3.706c2.139,0,3.398,1.67,3.398,3.794v0.279h-5.727
				c0.088,1.333,1.025,2.446,2.549,2.446c0.806,0,1.626-0.322,2.183-0.894l0.527,0.718c-0.703,0.703-1.655,1.084-2.812,1.084
				C221.441,475.465,219.932,473.956,219.932,471.744z M223.404,468.947c-1.509,0-2.256,1.274-2.314,2.358h4.643
				C225.718,470.25,225.015,468.947,223.404,468.947z"/>
			<path style="fill:#1D262D;" d="M233.35,475.289v-1.055c-0.527,0.718-1.392,1.23-2.388,1.23c-1.846,0-3.149-1.406-3.149-3.706
				c0-2.256,1.289-3.721,3.149-3.721c0.952,0,1.817,0.469,2.388,1.245v-3.765h1.098v9.77H233.35z M233.35,473.37v-3.208
				c-0.396-0.615-1.245-1.143-2.124-1.143c-1.421,0-2.27,1.172-2.27,2.739c0,1.567,0.849,2.724,2.27,2.724
				C232.105,474.483,232.954,473.986,233.35,473.37z"/>
			<path style="fill:#1D262D;" d="M239.692,475.289v-9.77h1.098v3.765c0.572-0.776,1.421-1.245,2.388-1.245
				c1.845,0,3.149,1.465,3.149,3.721c0,2.299-1.304,3.706-3.149,3.706c-0.996,0-1.86-0.513-2.388-1.23v1.055H239.692z
				 M242.9,474.483c1.436,0,2.285-1.157,2.285-2.724c0-1.568-0.85-2.739-2.285-2.739c-0.864,0-1.728,0.527-2.109,1.143v3.208
				C241.171,473.986,242.036,474.483,242.9,474.483z"/>
			<path style="fill:#1D262D;" d="M247.528,477.061c0.161,0.073,0.425,0.117,0.601,0.117c0.483,0,0.805-0.161,1.055-0.747
				l0.469-1.069l-2.959-7.148h1.187l2.358,5.8l2.344-5.8h1.201l-3.545,8.51c-0.425,1.025-1.143,1.421-2.08,1.435
				c-0.234,0-0.601-0.044-0.805-0.103L247.528,477.061z"/>
		</g>
	</g>
</g>
</svg>
