<?xml version="1.0" encoding="utf-8"?>
<!-- Generator: Adobe Illustrator 28.3.0, SVG Export Plug-In . SVG Version: 6.00 Build 0)  -->
<svg version="1.1" id="Layer_1" xmlns="http://www.w3.org/2000/svg" xmlns:xlink="http://www.w3.org/1999/xlink" x="0px" y="0px"
	 viewBox="0 0 61.5 66.9" style="enable-background:new 0 0 61.5 66.9;" xml:space="preserve">
<style type="text/css">
	.st0{opacity:0.8;fill:url(#SVGID_1_);enable-background:new    ;}
	.st1{fill:#094074;}
	.st2{fill:#FFFFFF;}
</style>
<g id="ELEMENTS">
	<g>
		
			<radialGradient id="SVGID_1_" cx="31.81" cy="30.76" r="29.68" gradientTransform="matrix(1 0 0 -1 0 68)" gradientUnits="userSpaceOnUse">
			<stop  offset="0" style="stop-color:#000057"/>
			<stop  offset="0.39" style="stop-color:#000000;stop-opacity:0.54"/>
			<stop  offset="0.79" style="stop-color:#000000;stop-opacity:0.15"/>
			<stop  offset="1" style="stop-color:#FFFFFF;stop-opacity:0"/>
		</radialGradient>
		<circle class="st0" cx="31.8" cy="37.2" r="29.7"/>
		<g>
			<circle class="st1" cx="23.8" cy="23.8" r="23.8"/>
			<g>
				<path class="st2" d="M30.4,15.9c-0.8,0-1.5,0.7-1.5,1.4s0.6,1.5,1.5,1.5s1.5-0.6,1.5-1.5S31.2,15.9,30.4,15.9z"/>
				<path class="st2" d="M23.9,17.7c-3.4,0-6.1,2.7-6.1,6.1s2.7,6.1,6.1,6.1s6.1-2.7,6.1-6.1S27.3,17.7,23.9,17.7z M23.9,27.7
					c-2.2,0-3.9-1.8-3.9-3.9s1.8-3.9,3.9-3.9s3.9,1.8,3.9,3.9S26.1,27.7,23.9,27.7z"/>
				<path class="st2" d="M28.8,36.2h-9.9c-4.1,0-7.4-3.3-7.4-7.5v-9.9c0-4.1,3.3-7.4,7.4-7.4h9.9c4.1,0,7.4,3.3,7.4,7.4v9.9
					C36.2,32.9,32.9,36.2,28.8,36.2z M18.9,13.8c-2.8,0-5.1,2.3-5.1,5.1v9.9c0,2.8,2.3,5.1,5.1,5.1h9.9c2.8,0,5.1-2.3,5.1-5.1v-9.9
					c0-2.8-2.3-5.1-5.1-5.1C28.8,13.8,18.9,13.8,18.9,13.8z"/>
			</g>
		</g>
	</g>
</g>
</svg>
