<?xml version="1.0" encoding="UTF-8"?>
<svg id="Layer_2" data-name="Layer 2" xmlns="http://www.w3.org/2000/svg" xmlns:xlink="http://www.w3.org/1999/xlink" viewBox="0 0 47.24 47.43">
  <defs>
    <style>
      .cls-1 {
        fill: #000;
      }

      .cls-1, .cls-2 {
        stroke-width: 0px;
      }

      .cls-2 {
        fill: none;
      }

      .cls-3 {
        clip-path: url(#clippath);
      }
    </style>
    <clipPath id="clippath">
      <rect class="cls-2" width="47.24" height="47.43"/>
    </clipPath>
  </defs>
  <g id="OBJECTS">
    <g class="cls-3">
      <path class="cls-1" d="M27.52,17.38c0,2.1-1.7,3.81-3.81,3.81s-3.81-1.7-3.81-3.81,1.7-3.81,3.81-3.81,3.81,1.7,3.81,3.81h0Z"/>
      <path class="cls-1" d="M23.64-.05C10.59-.05,0,10.54,0,23.6s10.59,23.64,23.64,23.64,23.64-10.59,23.64-23.64S36.7-.05,23.64-.05h0ZM23.59,10.78s.03,0,.05,0c.02,0,.03,0,.05,0,3.98.06,7.22,3.36,7.22,7.34,0,4.87-5.21,9.81-7.27,11.57-.14-.12-.29-.25-.46-.4,0,0,0,0,0,0-2.29-2.03-6.81-6.63-6.81-11.17,0-3.98,3.24-7.28,7.22-7.34h0ZM23.75,36.56c-4.36,0-8.78-1.25-8.78-3.64,0-1.68,2.17-2.79,4.98-3.31.54.54,1.06,1.03,1.51,1.43-3.05.34-4.85,1.31-4.85,1.88,0,.71,2.71,2.01,7.14,2.01s7.14-1.3,7.14-2.01c0-.59-1.87-1.58-5.03-1.9.45-.4.97-.89,1.52-1.44,2.89.5,5.15,1.63,5.15,3.34,0,2.39-4.41,3.64-8.77,3.64h0Z"/>
    </g>
  </g>
</svg>