<?xml version="1.0" encoding="UTF-8"?>
<svg id="Layer_2" data-name="Layer 2" xmlns="http://www.w3.org/2000/svg" xmlns:xlink="http://www.w3.org/1999/xlink" viewBox="0 0 47.28 47.47">
  <defs>
    <style>
      .cls-1 {
        fill: #000;
      }

      .cls-1, .cls-2 {
        stroke-width: 0px;
      }

      .cls-2 {
        fill: none;
      }

      .cls-3 {
        clip-path: url(#clippath);
      }
    </style>
    <clipPath id="clippath">
      <rect class="cls-2" width="47.28" height="47.47"/>
    </clipPath>
  </defs>
  <g id="OBJECTS">
    <g class="cls-3">
      <path class="cls-1" d="M23.66-.05C10.59-.05,0,10.55,0,23.62s10.59,23.66,23.66,23.66,23.66-10.6,23.66-23.66S36.73-.05,23.66-.05h0ZM23.66,8.26l14,8.73H9.66l14-8.73ZM37.84,30.94h0c0,1.4-1.14,2.54-2.54,2.54H12.02c-1.4,0-2.54-1.14-2.54-2.54v-13.39c0-.15.02-.29.04-.43l13.38,8.34s.03.02.05.03c.02,0,.04.02.05.03.09.05.19.09.29.11.01,0,.02,0,.03,0,.11.03.22.04.33.04h0c.11,0,.22-.02.33-.04,0,0,.02,0,.03,0,.1-.03.2-.06.29-.11.02,0,.04-.02.05-.03.02,0,.03-.02.05-.03l13.38-8.34c.02.14.04.29.04.43v13.39Z"/>
    </g>
  </g>
</svg>