<?xml version="1.0" encoding="UTF-8"?>
<svg id="Layer_2" data-name="Layer 2" xmlns="http://www.w3.org/2000/svg" xmlns:xlink="http://www.w3.org/1999/xlink" viewBox="0 0 47.24 47.43">
  <defs>
    <style>
      .cls-1 {
        fill: #000;
      }

      .cls-1, .cls-2 {
        stroke-width: 0px;
      }

      .cls-2 {
        fill: none;
      }

      .cls-3 {
        clip-path: url(#clippath);
      }
    </style>
    <clipPath id="clippath">
      <rect class="cls-2" width="47.24" height="47.43"/>
    </clipPath>
  </defs>
  <g id="OBJECTS">
    <g>
      <g class="cls-3">
        <path class="cls-1" d="M23.64-.05C10.59-.05,0,10.54,0,23.6s10.59,23.64,23.64,23.64,23.64-10.59,23.64-23.64S36.7-.05,23.64-.05h0ZM33.25,34.18v1.64c0,.9-.73,1.64-1.64,1.64H15.26c-1.81,0-3.27-1.46-3.27-3.27V13.6c0-1.81,1.46-3.27,3.27-3.27h16.35c.9,0,1.64.73,1.64,1.64v22.21ZM36.52,13.6v22.21c0,.9-.73,1.64-1.63,1.64h-.44c.28-.48.44-1.04.44-1.64V11.97c0-.6-.16-1.15-.44-1.63h.44c.9,0,1.63.73,1.63,1.63v1.64Z"/>
      </g>
      <path class="cls-1" d="M27.68,26.04s-.62-.74-1.3-.23c-.51.38-1.42,1.23-1.64,1.43,0,0-1.53-.81-2.43-1.56-1.34-1.1-2.23-2.46-2.7-3.23l-.35-.66c.12-.13,1.06-1.13,1.46-1.68.51-.68-.23-1.3-.23-1.3,0,0-2.08-2.08-2.55-2.49-.47-.41-1.02-.18-1.02-.18-.99.64-2.03,1.2-2.09,3.89,0,2.52,1.91,5.11,3.97,7.12,2.07,2.27,4.91,4.55,7.66,4.54,2.69-.06,3.25-1.09,3.89-2.09,0,0,.23-.54-.18-1.02-.41-.47-2.49-2.55-2.49-2.55h0Z"/>
    </g>
  </g>
</svg>